<?xml version="1.0" encoding="UTF-8"?>
<svg id="Layer_2" data-name="Layer 2" xmlns="http://www.w3.org/2000/svg" viewBox="0 0 369 369">
  <defs>
    <style>
      .cls-1 {
        fill: #a50287;
      }

      .cls-1, .cls-2 {
        stroke-width: 0px;
      }

      .cls-2 {
        fill: #fff;
      }
    </style>
  </defs>
  <g id="Layer_1-2" data-name="Layer 1">
    <circle class="cls-1" cx="184.5" cy="184.5" r="184.5"/>
    <path class="cls-2" d="M262.93,93H106.03c-7.19,0-13.03,5.92-13.03,13.19v156.61c0,7.27,5.84,13.19,13.03,13.19h156.9c7.19,0,13.07-5.92,13.07-13.19V106.19c0-7.27-5.88-13.19-13.07-13.19ZM148.31,249.86h-27.12v-87.33h27.16v87.33h-.04ZM134.75,150.6c-8.7,0-15.73-7.07-15.73-15.73s7.03-15.73,15.73-15.73,15.73,7.07,15.73,15.73-7.03,15.73-15.73,15.73ZM249.98,249.86h-27.12v-42.48c0-10.13-.2-23.16-14.09-23.16s-16.3,11.03-16.3,22.43v43.22h-27.12v-87.33h26.02v11.93h.37c3.64-6.86,12.5-14.09,25.69-14.09,27.45,0,32.56,18.1,32.56,41.62v47.87Z"/>
  </g>
</svg>