<?xml version="1.0" encoding="utf-8"?>
<!-- Generator: Adobe Illustrator 28.1.0, SVG Export Plug-In . SVG Version: 6.00 Build 0)  -->
<svg version="1.1" id="Layer_1" xmlns="http://www.w3.org/2000/svg" xmlns:xlink="http://www.w3.org/1999/xlink" x="0px" y="0px"
	 viewBox="0 0 512 512" style="enable-background:new 0 0 512 512;" xml:space="preserve">
<style type="text/css">
	.st0{fill:#A50287;}
</style>
<path class="st0" d="M272,0c132.5,0,240,107.5,240,240c0,8.8-7.2,16-16,16s-16-7.2-16-16c0-114.9-93.1-208-208-208
	c-8.8,0-16-7.2-16-16S263.2,0,272,0z M288,192c17.7,0,32,14.3,32,32s-14.3,32-32,32s-32-14.3-32-32S270.3,192,288,192z M256,112
	c0-8.8,7.2-16,16-16c79.5,0,144,64.5,144,144c0,8.8-7.2,16-16,16s-16-7.2-16-16c0-61.9-50.1-112-112-112
	C263.2,128,256,120.8,256,112z M329,286.7c11.3-13.8,30.3-18.5,46.7-11.4l112,48c17.6,7.5,27.4,26.5,23.4,45.1l-24,112
	c-4,18.4-20.3,31.6-39.1,31.6l0,0c-6.1,0-12.2-0.1-18.3-0.4c0,0,0,0-0.1,0l0,0c-4.6-0.2-9.1-0.4-13.7-0.8C183.5,494.5,0,300.7,0,64
	l0,0c0-18.9,13.2-35.2,31.6-39.1l112-24c18.7-4,37.6,5.8,45.1,23.4l48,112c7,16.4,2.4,35.4-11.4,46.7l-40.6,33.2
	c26.7,46,65.1,84.4,111.1,111.1L329,286.7z M448,480c3.8,0,7-2.6,7.8-6.3l24-112c0.8-3.7-1.2-7.5-4.7-9l-112-48
	c-3.3-1.4-7.1-0.5-9.3,2.3l-33.2,40.6c-9.9,12.1-27.2,15.3-40.8,7.4c-50.9-29.5-93.3-71.9-122.7-122.7c-7.9-13.6-4.7-30.9,7.4-40.8
	l40.6-33.2c2.8-2.3,3.7-6.1,2.3-9.3l-48-112c-1.5-3.5-5.3-5.5-9-4.7l-112,24C34.6,57,32,60.2,32,64l0,0l0,0l0,0l0,0l0,0l0,0l0,0l0,0
	l0,0l0,0l0,0l0,0l0,0l0,0l0,0l0,0l0,0l0,0l0,0l0,0l0,0l0,0l0,0l0,0c0,229.6,186.1,415.8,415.7,416H448z"/>
</svg>
