<?xml version="1.0" encoding="UTF-8"?>
<svg id="Layer_2" data-name="Layer 2" xmlns="http://www.w3.org/2000/svg" viewBox="0 0 369 369">
  <defs>
    <style>
      .cls-1 {
        fill: #a50287;
      }

      .cls-1, .cls-2 {
        stroke-width: 0px;
      }

      .cls-2 {
        fill: #fff;
      }
    </style>
  </defs>
  <g id="Layer_1-2" data-name="Layer 1">
    <circle class="cls-1" cx="184.5" cy="184.5" r="184.5"/>
    <path class="cls-2" d="M244.93,114h-120.89c-5.54,0-10.04,4.56-10.04,10.17v120.67c0,5.6,4.5,10.17,10.04,10.17h120.89c5.54,0,10.07-4.56,10.07-10.17v-120.67c0-5.6-4.53-10.17-10.07-10.17ZM156.61,234.86h-20.9v-67.29h20.93v67.29h-.03ZM146.17,158.38c-6.7,0-12.12-5.44-12.12-12.12s5.41-12.12,12.12-12.12,12.12,5.44,12.12,12.12-5.41,12.12-12.12,12.12ZM234.95,234.86h-20.9v-32.73c0-7.81-.16-17.85-10.86-17.85s-12.56,8.5-12.56,17.28v33.3h-20.9v-67.29h20.05v9.19h.28c2.8-5.29,9.63-10.86,19.8-10.86,21.15,0,25.08,13.94,25.08,32.07v36.89Z"/>
  </g>
</svg>