<?xml version="1.0" encoding="utf-8"?>
<!-- Generator: Adobe Illustrator 28.1.0, SVG Export Plug-In . SVG Version: 6.00 Build 0)  -->
<svg version="1.1" id="Layer_1" xmlns="http://www.w3.org/2000/svg" xmlns:xlink="http://www.w3.org/1999/xlink" x="0px" y="0px"
	 viewBox="0 0 512 512" style="enable-background:new 0 0 512 512;" xml:space="preserve">
<style type="text/css">
	.st0{fill:#A50287;}
</style>
<path class="st0" d="M241.6,36.8L45,182.4c-8.1,6-13,15.6-13,25.7v3.2l10.2,8.3l195.6,160.7c5.1,4.2,11.6,6.5,18.2,6.5
	c6.6,0,13.1-2.3,18.2-6.5l195.6-160.7l10.2-8.3v-3.2c0-10.1-4.8-19.7-13-25.7L270.4,36.8c-4.2-3.1-9.2-4.8-14.4-4.8
	S245.7,33.7,241.6,36.8z M32,252.7V448c0,17.7,14.3,32,32,32h384c17.7,0,32-14.3,32-32V252.7L294.5,405.1
	c-10.8,8.9-24.5,13.8-38.5,13.8s-27.7-4.9-38.5-13.8L32,252.7z M222.5,11c9.7-7.1,21.4-11,33.5-11s23.8,3.9,33.5,11l196.6,145.7
	c16.3,12.1,25.9,31.1,25.9,51.4V448c0,35.3-28.7,64-64,64H64c-35.3,0-64-28.7-64-64V208.1c0-20.3,9.6-39.4,25.9-51.4L222.5,11z"/>
</svg>
